<svg xmlns="http://www.w3.org/2000/svg" width="636.31" height="468.819" viewBox="0 0 636.31 468.819"><defs><style>.a{fill:#e6e6e6;}.b{fill:#ccc;}.c{fill:#6c63ff;}.d{opacity:0.2;}.e{fill:#2f2e41;}.f{fill:#a0616a;}.g{fill:#575a89;}.h{fill:#3f3d56;}.i{fill:#fff;}.j{fill:#b3b3b3;}.k{fill:#d0cde1;}</style></defs><g transform="translate(0 -0.001)"><rect class="a" width="267.464" height="7.846" transform="translate(368.845 173.597)"/><rect class="a" width="67.758" height="67.758" transform="translate(390.956 107.979)"/><rect class="b" width="40.655" height="40.655" transform="translate(404.507 121.531)"/><rect class="a" width="17.118" height="67.758" transform="translate(542.875 107.979)"/><rect class="b" width="17.118" height="7.846" transform="translate(542.875 118.678)"/><rect class="b" width="17.118" height="7.846" transform="translate(542.875 152.913)"/><rect class="a" width="17.118" height="67.758" transform="translate(516.486 107.979)"/><rect class="b" width="17.118" height="7.846" transform="translate(516.486 118.678)"/><rect class="b" width="17.118" height="7.846" transform="translate(516.486 152.913)"/><rect class="a" width="17.118" height="67.758" transform="matrix(0.896, -0.444, 0.444, 0.896, 559.401, 115.295)"/><rect class="b" width="17.118" height="7.846" transform="matrix(0.896, -0.444, 0.444, 0.896, 564.148, 124.882)"/><rect class="b" width="17.118" height="7.846" transform="matrix(0.896, -0.444, 0.444, 0.896, 579.338, 155.564)"/><path class="a" d="M520.2,170.382l8.621,14.931,8.62,14.931H502.958l8.62-14.931Z" transform="translate(-103.923 -35.205)"/><path class="a" d="M539.077,173.978l8.62,14.931,8.621,14.931H521.837l8.62-14.931Z" transform="translate(-107.824 -35.948)"/><circle class="a" cx="4.993" cy="4.993" r="4.993" transform="translate(432.323 123.671)"/><rect class="a" width="267.464" height="7.846" transform="translate(636.31 73.744) rotate(180)"/><rect class="a" width="67.758" height="67.758" transform="translate(614.199 68.038) rotate(180)"/><rect class="b" width="40.655" height="40.655" transform="translate(600.648 54.486) rotate(180)"/><rect class="a" width="17.118" height="67.758" transform="translate(462.279 68.038) rotate(180)"/><rect class="b" width="17.118" height="7.846" transform="translate(462.279 18.824) rotate(180)"/><rect class="b" width="17.118" height="7.846" transform="translate(462.279 53.06) rotate(180)"/><rect class="a" width="17.118" height="67.758" transform="translate(488.669 68.038) rotate(180)"/><rect class="b" width="17.118" height="7.846" transform="translate(488.669 18.824) rotate(180)"/><rect class="b" width="17.118" height="7.846" transform="translate(488.669 53.06) rotate(180)"/><rect class="a" width="17.118" height="67.758" transform="matrix(-0.896, -0.444, 0.444, -0.896, 415.69, 68.319)"/><rect class="b" width="17.118" height="7.846" transform="matrix(-0.896, -0.444, 0.444, -0.896, 437.525, 24.214)"/><rect class="b" width="17.118" height="7.846" transform="matrix(-0.896, -0.444, 0.444, -0.896, 422.335, 54.896)"/><path class="a" d="M737.754,34.634l-8.62,14.931L720.514,64.5h34.481l-8.621-14.931Z" transform="translate(-148.875 -7.156)"/><path class="a" d="M718.875,38.23l-8.62,14.931-8.62,14.931h34.481L727.5,53.161Z" transform="translate(-144.974 -7.899)"/><circle class="a" cx="4.993" cy="4.993" r="4.993" transform="translate(562.846 15.972)"/><rect class="a" width="267.464" height="7.846" transform="translate(636.31 289.142) rotate(180)"/><rect class="a" width="67.758" height="67.758" transform="translate(614.199 283.436) rotate(180)"/><rect class="b" width="40.655" height="40.655" transform="translate(600.648 269.884) rotate(180)"/><rect class="a" width="17.118" height="67.758" transform="translate(462.279 283.436) rotate(180)"/><rect class="b" width="17.118" height="7.846" transform="translate(462.279 234.222) rotate(180)"/><rect class="b" width="17.118" height="7.846" transform="translate(462.279 268.458) rotate(180)"/><rect class="a" width="17.118" height="67.758" transform="translate(488.669 283.436) rotate(180)"/><rect class="b" width="17.118" height="7.846" transform="translate(488.669 234.222) rotate(180)"/><rect class="b" width="17.118" height="7.846" transform="translate(488.669 268.458) rotate(180)"/><rect class="a" width="17.118" height="67.758" transform="matrix(-0.896, -0.444, 0.444, -0.896, 415.69, 283.716)"/><rect class="b" width="17.118" height="7.846" transform="matrix(-0.896, -0.444, 0.444, -0.896, 437.525, 239.612)"/><rect class="b" width="17.118" height="7.846" transform="matrix(-0.896, -0.444, 0.444, -0.896, 422.335, 270.293)"/><path class="a" d="M737.754,306.129l-8.62,14.931-8.62,14.931h34.481l-8.621-14.931Z" transform="translate(-148.875 -63.253)"/><path class="a" d="M718.875,309.725l-8.62,14.931-8.62,14.931h34.481l-8.62-14.931Z" transform="translate(-144.974 -63.996)"/><circle class="a" cx="4.993" cy="4.993" r="4.993" transform="translate(562.846 231.369)"/><ellipse class="a" cx="315.073" cy="22.377" rx="315.073" ry="22.377" transform="translate(0 424.065)"/><path class="c" d="M863.014,715.331c-51.375-9.144-107.556-7.624-166.488,0,26.86-22.676,50.042-45.351,23.182-68.027,52.394,10.809,59.733,9.715,118.017,0C824.206,669.98,849.5,692.655,863.014,715.331Z" transform="translate(-301.79 -256.358)"/><path class="d" d="M863.014,715.331c-51.375-9.144-107.556-7.624-166.488,0,26.86-22.676,50.042-45.351,23.182-68.027,52.394,10.809,59.733,9.715,118.017,0C824.206,669.98,849.5,692.655,863.014,715.331Z" transform="translate(-301.79 -256.358)"/><path class="c" d="M853.746,706.712c-43.641-7.3-91.365-6.086-141.425,0,22.817-18.1,42.509-36.2,19.692-54.3,44.507,8.628,50.741,7.755,100.25,0C820.781,670.512,842.263,688.612,853.746,706.712Z" transform="translate(-305.053 -257.413)"/><circle class="e" cx="23.253" cy="23.253" r="23.253" transform="translate(508.817 373.629)"/><path class="f" d="M530.831,466.249l16.112,2.686L555,492.207l-23.272,14.322-26.853-40.28h25.958Z" transform="translate(-104.318 -96.338)"/><circle class="f" cx="37.594" cy="37.594" r="37.594" transform="translate(434.568 330.527)"/><path class="e" d="M496.547,445.919s-91.3,9.846-107.411,8.056-23.272-3.58-23.272-3.58-10.741,14.322-5.371,20.587a38.734,38.734,0,0,0,10.741,8.951s9.846-2.685,17.007,0,79.663,14.322,92.195,3.58S496.547,445.919,496.547,445.919Z" transform="translate(-232.047 -214.747)"/><path class="e" d="M505.3,654.176s-59.971-17.007-70.712-92.195V554.82s-11.866,20.817-16.112,25.063c-4.923,4.923-22.377,49.23-21.482,53.706s0,6.266,0,6.266l-25.958-2.685v-8.056s13.874-41.622,14.769-51.468,34.461-78.321,34.461-78.321,12.531-25.958,34.014,0,23.272,43.86,23.272,43.86L505.3,596.89Z" transform="translate(-234.536 -223.398)"/><path class="e" d="M357.97,443.332l-28.643-9.846s-26.853-19.692-20.587,0,34.909,62.657,42.965,58.181,17.744-15.584,15.585-17.191S350.809,461.233,357.97,443.332Z" transform="translate(-221.468 -210.37)"/><path class="e" d="M364.928,659.259l-23.122,11.292s-27.961,4.3-12.368,12.368,58.612,16.669,60.763,9.141,1.3-20.022-.964-19.69S371.38,674.315,364.928,659.259Z" transform="translate(-224.964 -258.828)"/><path class="g" d="M524.714,616.753s-11.636,50.125,8.056,60.866,157.537,12.531,168.278-7.161,5.371-19.692,5.371-19.692l-28.643-32.223,23.272-1.79s0-7.161-8.056-8.056-33.118-9.846-54.6-3.58-34.014-12.531-34.014-12.531Z" transform="translate(-265.584 -245.052)"/><path class="h" d="M303.474,269.9l-15.217,83.244,104.727-12.531,18.8-75.188Z" transform="translate(-59.561 -54.843)"/><path class="i" d="M308.122,273.852l-12.531,74.293,95.327-11.188,18.349-67.58Z" transform="translate(-61.076 -55.659)"/><path class="j" d="M291.371,376.888l-3.581-.895-1.79,3.58,28.643,79.664,2.693-1.03.886-5.235Z" transform="translate(-59.094 -77.689)"/><path class="k" d="M288.257,371.834,316.9,455.078l108.306-16.112L392.984,360.2Z" transform="translate(-59.561 -74.425)"/><path class="h" d="M306.309,369.149v4.475l79.663-8.951-.895-4.475Z" transform="translate(-63.291 -74.425)"/><path class="h" d="M308.565,380.664,321.1,415.573l81.454-9.846-14.321-33.119Z" transform="translate(-63.757 -76.989)"/><path class="f" d="M626.751,589.784l-2.685-7.161s-20.587-35.8-31.328-28.643,22.377,42.069,22.377,42.069h10.741Z" transform="translate(-279.902 -236.879)"/><path class="f" d="M549.194,595.15l-2.685-10.741s-7.161-33.118,5.371-31.328S567.991,586.2,567.991,586.2l-.9,7.161Z" transform="translate(-270.372 -236.875)"/><path class="g" d="M570.956,600.179s-23.272-3.58-24.168,1.79S541.418,687.9,563.8,690.583,697.164,704.9,685.528,677.157s-29.538-24.168-29.538-24.168l-76.083,8.056Z" transform="translate(-270.652 -246.379)"/><path class="g" d="M456.821,454.6,433.1,438.044l-15.664,12.084,19.692,21.482Z" transform="translate(-86.252 -90.51)"/><path class="d" d="M386.976,479.224l3.58,34.014,61.762-3.581-53.706-.895Z" transform="translate(-79.958 -99.019)"/><circle class="e" cx="44.755" cy="44.755" r="44.755" transform="translate(445.965 330.197)"/><path class="c" d="M328.309,301.908l55.5-1.932,5.37-20.445-57.286,1.729Z" transform="translate(-67.836 -57.757)"/><path class="a" d="M310.258,320.771l84.138-2.686.895-3.581-84.138,2.962Z" transform="translate(-64.107 -64.984)"/><path class="a" d="M308,332.053l84.139-2.686.895-3.581L308.9,328.749Z" transform="translate(-63.64 -67.315)"/><path class="a" d="M306.873,341.078l84.138-2.685.9-3.581-84.139,2.962Z" transform="translate(-63.407 -69.18)"/></g></svg>